<svg width="35" height="27" viewBox="0 0 35 27" fill="none" xmlns="http://www.w3.org/2000/svg">
<path d="M0 8.30859H34.3715V18.6932H0V8.30859Z" fill="#E00034"/>
<path d="M30.5525 0H3.81906C2.80618 0 1.83479 0.437636 1.11858 1.21663C0.402364 1.99563 0 3.05218 0 4.15385L0 8.30769H34.3715V4.15385C34.3715 3.05218 33.9692 1.99563 33.2529 1.21663C32.5367 0.437636 31.5653 0 30.5525 0Z" fill="#0098C3"/>
<path d="M17.0369 16.96C16.5066 16.96 15.9847 16.8159 15.5186 16.5408C15.0526 16.2657 14.6571 15.8682 14.3682 15.3846C14.0792 14.9009 13.906 14.3464 13.8642 13.7715C13.8225 13.1965 13.9135 12.6193 14.1289 12.0923C14.3444 11.5653 14.6776 11.1052 15.0981 10.7538C15.5187 10.4025 16.0133 10.1711 16.537 10.0805C17.0607 9.98996 17.5969 10.0432 18.0969 10.2354C18.5969 10.4276 19.0448 10.7526 19.3999 11.1809C18.9431 10.4424 18.2803 9.88299 17.5091 9.58515C16.7379 9.28731 15.8991 9.26678 15.1164 9.52661C14.3337 9.78643 13.6484 10.3128 13.1615 11.0283C12.6746 11.7437 12.4119 12.6104 12.4121 13.5005C12.4123 14.3906 12.6754 15.2571 13.1625 15.9723C13.6497 16.6875 14.3352 17.2136 15.118 17.473C15.9009 17.7325 16.7396 17.7115 17.5107 17.4133C18.2818 17.1151 18.9444 16.5554 19.4009 15.8166C19.1027 16.177 18.7381 16.4651 18.3308 16.6621C17.9235 16.8591 17.4826 16.9606 17.0369 16.96Z" fill="white"/>
<path d="M22.5967 13.4987L21.4548 13.0584L21.9742 11.8684L20.88 12.4343L20.4733 11.1934L20.0685 12.4354L20.0656 12.4333L18.9734 11.8704L19.4947 13.0605L18.3528 13.5029L19.4947 13.9432L18.9753 15.1333L20.0647 14.5694L20.0695 14.5673L20.4762 15.8083L20.881 14.5663L21.9761 15.1312L21.4548 13.9411L22.5967 13.4987Z" fill="white"/>
<path d="M3.81906 26.9991H30.5525C31.5653 26.9991 32.5367 26.5615 33.2529 25.7825C33.9692 25.0035 34.3715 23.9469 34.3715 22.8453V18.6914H0V22.8453C0 23.9469 0.402364 25.0035 1.11858 25.7825C1.83479 26.5615 2.80618 26.9991 3.81906 26.9991Z" fill="#00AE65"/>
</svg>
