<svg width="33" height="25" viewBox="0 0 33 25" fill="none" xmlns="http://www.w3.org/2000/svg">
<g clip-path="url(#clip0_154_412)">
<path d="M464.538 -281.25H-88.8462V72.9167H464.538V-281.25Z" fill="#D8D8D8"/>
<path d="M33 0H0V25H33V0Z" fill="#DC4437"/>
<path d="M7.86922 3.02148L9.36691 5.62565L12.6923 6.04232L10.2808 8.08398L10.8392 10.9382L7.86922 9.58398L4.89922 10.9382L5.45768 8.08398L3.04614 6.04232L6.37153 5.62565L7.86922 3.02148Z" fill="#FCBE1F"/>
<path d="M15.3577 1.66602L15.9415 2.68685L17.2615 2.85352L16.2969 3.66602L16.5254 4.79102L15.3577 4.24935L14.19 4.79102L14.4185 3.66602L13.4539 2.85352L14.7739 2.68685L15.3577 1.66602Z" fill="#FCBE1F"/>
<path d="M16.3731 5.375L16.9569 6.41667L18.2769 6.58333L17.3123 7.375L17.5408 8.5L16.3731 7.97917L15.2054 8.5L15.4339 7.375L14.4692 6.58333L15.7892 6.41667L16.3731 5.375Z" fill="#FCBE1F"/>
<path d="M15.3577 9.16602L15.9415 10.1868L17.2615 10.3535L16.2969 11.166L16.5254 12.291L15.3577 11.7493L14.19 12.291L14.4185 11.166L13.4539 10.3535L14.7739 10.1868L15.3577 9.16602Z" fill="#FCBE1F"/>
</g>
<defs>
<clipPath id="clip0_154_412">
<rect width="33" height="25" rx="2" fill="white"/>
</clipPath>
</defs>
</svg>
