<svg width="32" height="29" viewBox="0 0 32 29" fill="none" xmlns="http://www.w3.org/2000/svg">
<path d="M31.0927 24.5385C31.0927 25.7217 30.7287 26.8565 30.0809 27.6932C29.433 28.5299 28.5542 29 27.638 29H20.7285V0H27.638C28.5542 0 29.433 0.470053 30.0809 1.30675C30.7287 2.14345 31.0927 3.27826 31.0927 4.46154V24.5385Z" fill="#ED2939"/>
<path d="M3.45473 0C2.53848 0 1.65976 0.470053 1.01187 1.30675C0.36398 2.14345 0 3.27826 0 4.46154L0 24.5385C0 25.7217 0.36398 26.8565 1.01187 27.6932C1.65976 28.5299 2.53848 29 3.45473 29H10.3642V0H3.45473Z" fill="#002495"/>
<path d="M10.3643 0H20.7285V29H10.3643V0Z" fill="#EEEEEE"/>
</svg>
