<svg width="33" height="25" viewBox="0 0 33 25" fill="none" xmlns="http://www.w3.org/2000/svg">
<path d="M0 21.1529C0 22.173 0.37572 23.1514 1.04451 23.8727C1.71329 24.594 2.62036 24.9993 3.56617 24.9993H28.5294C29.4752 24.9993 30.3822 24.594 31.051 23.8727C31.7198 23.1514 32.0955 22.173 32.0955 21.1529V17.3066H0V21.1529Z" fill="#FFCD05"/>
<path d="M0 8.6543H32.0955V17.3085H0V8.6543Z" fill="#ED1F24"/>
<path d="M28.5294 0H3.56617C2.62036 0 1.71329 0.405234 1.04451 1.12656C0.37572 1.84788 0 2.8262 0 3.84631L0 8.65419H32.0955V3.84631C32.0955 2.8262 31.7198 1.84788 31.051 1.12656C30.3822 0.405234 29.4752 0 28.5294 0Z" fill="#141414"/>
</svg>
