<svg width="32" height="31" viewBox="0 0 32 31" fill="none" xmlns="http://www.w3.org/2000/svg">
<g clip-path="url(#clip0_154_424)">
<path d="M16.0008 31.0006C24.837 31.0006 32.0001 24.0613 32.0001 15.5013C32.0001 6.94125 24.837 0.00195312 16.0008 0.00195312C7.16461 0.00195312 0.00146484 6.94125 0.00146484 15.5013C0.00146484 24.0613 7.16461 31.0006 16.0008 31.0006Z" fill="white"/>
<path d="M31.0852 10.332H21.2273C21.6553 13.6431 21.658 17.2914 21.2354 20.6066H31.1064C31.6824 19.007 31.9995 17.2897 31.9995 15.4999C31.9997 13.6871 31.6753 11.9485 31.0852 10.332Z" fill="#EFECEC"/>
<path d="M21.2274 10.3328H31.0853C31.0835 10.3279 31.082 10.3238 31.0802 10.3194C29.0324 4.72597 23.7653 0.610723 17.4365 0.0644531C19.8856 1.36498 20.6008 5.4854 21.2274 10.3328Z" fill="#E63026"/>
<path d="M17.4368 30.9365C23.7768 30.3893 29.0515 26.2598 31.0912 20.6515C31.0966 20.6365 31.1011 20.6219 31.1066 20.6074H21.2353C20.6142 25.4811 19.8959 29.6306 17.4368 30.9365Z" fill="#2B479D"/>
<path d="M0 15.4999C0 17.2897 0.317041 19.007 0.893025 20.6066H22.0592C22.4819 17.2911 22.4791 13.6431 22.0511 10.332H0.914237C0.324067 11.9485 0 13.6871 0 15.4999Z" fill="#EFEFEF"/>
<path d="M0.919129 10.3188C0.917373 10.3232 0.915819 10.3274 0.914062 10.3323H22.0512C21.4247 5.48482 19.8857 1.36446 17.4369 0.0639398C16.9633 0.023233 16.4843 0 15.9998 0C9.03958 0 3.12018 4.30661 0.919129 10.3188Z" fill="#E73B36"/>
<path d="M22.0593 20.6074H0.893066C0.898403 20.6219 0.9032 20.6365 0.908469 20.6515C3.1008 26.6791 9.02798 31.0006 15.9996 31.0006C16.4842 31.0006 16.9632 30.9776 17.4368 30.9365C19.8959 29.6306 21.438 25.4811 22.0593 20.6074Z" fill="#3757A6"/>
</g>
<defs>
<clipPath id="clip0_154_424">
<rect width="32" height="31" fill="white"/>
</clipPath>
</defs>
</svg>
