<svg width="33" height="26" viewBox="0 0 33 26" fill="none" xmlns="http://www.w3.org/2000/svg">
<path d="M32.0958 22C32.0958 23.0609 31.7201 24.0783 31.0513 24.8284C30.3825 25.5786 29.4754 26 28.5296 26H21.3972V0H28.5296C29.4754 0 30.3825 0.421427 31.0513 1.17157C31.7201 1.92172 32.0958 2.93913 32.0958 4V22Z" fill="#CE2B37"/>
<path d="M3.56619 0C2.62038 0 1.7133 0.421427 1.04451 1.17157C0.375723 1.92172 0 2.93913 0 4L0 22C0 23.0609 0.375723 24.0783 1.04451 24.8284C1.7133 25.5786 2.62038 26 3.56619 26H10.6986V0H3.56619Z" fill="#009246"/>
<path d="M10.699 0H21.3975V26H10.699V0Z" fill="#EEEEEE"/>
</svg>
