<svg width="29" height="19" viewBox="0 0 29 19" fill="none" xmlns="http://www.w3.org/2000/svg">
<g clip-path="url(#clip0_120_3431)">
<path d="M26.6367 0.105469H2.15639C0.965411 0.105469 0 1.07088 0 2.26186V16.8136C0 18.0045 0.965411 18.97 2.15639 18.97H26.6367C27.8276 18.97 28.7931 18.0046 28.7931 16.8136V2.26186C28.7931 1.07088 27.8276 0.105469 26.6367 0.105469Z" fill="#F5F5F5"/>
<path d="M17.152 5.40602C14.8709 3.88528 11.7898 4.50703 10.2701 6.78415C9.50781 7.92075 9.81767 9.46517 10.9581 10.2255C12.0978 10.9859 13.6373 10.6771 14.3976 9.53653C15.158 8.396 16.6985 8.09103 17.8381 8.84741C18.9795 9.60778 19.2865 11.1522 18.5251 12.2888C20.0458 10.0079 19.4311 6.92682 17.152 5.40602Z" fill="#FF4B55"/>
<path d="M10.2712 6.78516C9.5089 7.92175 9.81877 9.46617 10.9592 10.2265C12.0989 10.9869 13.6383 10.6781 14.3987 9.53754C15.1591 8.39701 16.6996 8.09204 17.8392 8.84842C18.9806 9.60879 19.2876 11.1532 18.5262 12.2898C17.0075 14.5748 13.9275 15.1887 11.6463 13.668C9.3673 12.1474 8.7505 9.06633 10.2712 6.78516Z" fill="#41479B"/>
<path d="M19.6783 3.53066L20.5801 4.88607C20.6558 4.99995 20.6252 5.1537 20.5115 5.22979L20.2829 5.38292C20.1688 5.45929 20.0143 5.42858 19.9382 5.31431L19.0353 3.95924C18.9593 3.84525 18.9902 3.69121 19.1041 3.61513L19.3339 3.46171C19.448 3.38551 19.6023 3.41644 19.6783 3.53066Z" fill="#464655"/>
<path d="M21.07 5.62113L21.9747 6.97569C22.0511 7.09008 22.0199 7.24484 21.9051 7.32065L21.6755 7.47243C21.5615 7.54779 21.4081 7.5168 21.3323 7.40326L20.4281 6.0501C20.352 5.93616 20.3825 5.78202 20.4965 5.70582L20.7257 5.55263C20.8396 5.47643 20.9938 5.50708 21.07 5.62113Z" fill="#464655"/>
<path d="M20.6443 2.88694L22.9404 6.33272C23.0164 6.44676 22.9855 6.60085 22.8715 6.67688L22.6408 6.83063C22.5268 6.90666 22.3726 6.87585 22.2966 6.7618L19.9997 3.31625C19.9236 3.20215 19.9546 3.04795 20.0687 2.97191L20.3001 2.81788C20.4142 2.74213 20.5683 2.77289 20.6443 2.88694Z" fill="#464655"/>
<path d="M21.6087 2.24263L22.5124 3.60068C22.5886 3.71507 22.5573 3.86949 22.4426 3.94525L22.2128 4.09708C22.0987 4.17244 21.9453 4.14145 21.8695 4.02769L20.9651 2.67143C20.889 2.55739 20.9199 2.40324 21.0339 2.32715L21.2644 2.17352C21.3785 2.09748 21.5327 2.12836 21.6087 2.24263Z" fill="#464655"/>
<path d="M22.9989 4.3363L23.9012 5.69154C23.9771 5.80548 23.9464 5.95934 23.8326 6.03543L23.6034 6.18862C23.4893 6.26487 23.3349 6.23411 23.2589 6.11984L22.3566 4.7646C22.2807 4.65066 22.3114 4.4968 22.4252 4.42071L22.6543 4.26752C22.7685 4.19121 22.9228 4.22192 22.9989 4.3363Z" fill="#464655"/>
<path d="M7.4645 11.674L9.7603 15.1161C9.83633 15.2301 9.80563 15.3841 9.69158 15.4602L9.46169 15.6138C9.34764 15.6899 9.19349 15.6591 9.11735 15.545L6.82155 12.103C6.74547 11.989 6.77623 11.8349 6.89027 11.7588L7.12023 11.6053C7.23422 11.5291 7.38842 11.5599 7.4645 11.674Z" fill="#464655"/>
<path d="M6.50042 12.3176L7.40177 13.6696C7.47775 13.7835 7.4471 13.9373 7.33333 14.0135L7.10468 14.1666C6.99069 14.2429 6.83637 14.2122 6.76017 14.0981L5.85775 12.7465C5.7816 12.6325 5.81231 12.4784 5.92635 12.4022L6.15614 12.2488C6.27013 12.1727 6.42433 12.2035 6.50042 12.3176Z" fill="#464655"/>
<path d="M7.89331 14.4085L8.79568 15.7639C8.8716 15.8779 8.84083 16.0318 8.72696 16.1078L8.49762 16.2612C8.38352 16.3374 8.22926 16.3067 8.15312 16.1925L7.25019 14.8373C7.17421 14.7233 7.20497 14.5693 7.31891 14.4933L7.5488 14.3397C7.66296 14.2634 7.81722 14.2943 7.89331 14.4085Z" fill="#464655"/>
<path d="M5.53643 12.9602L7.83077 16.4024C7.90674 16.5163 7.87598 16.6703 7.76222 16.7464L7.53294 16.8997C7.41889 16.976 7.26464 16.9452 7.18849 16.8311L4.89281 13.3893C4.81672 13.2753 4.84759 13.1212 4.96164 13.0451L5.19232 12.8913C5.30626 12.8153 5.4604 12.8461 5.53643 12.9602Z" fill="#464655"/>
<path d="M6.82145 6.97542L9.1169 3.53054C9.19299 3.41638 9.34719 3.38557 9.4613 3.46171L9.69113 3.61518C9.80513 3.69127 9.83583 3.84535 9.75986 3.95935L7.4635 7.40231C7.38758 7.51608 7.234 7.54701 7.12 7.47154L6.89107 7.31998C6.77646 7.24417 6.7453 7.08969 6.82145 6.97542Z" fill="#464655"/>
<path d="M5.85761 6.33251L8.15346 2.88696C8.22955 2.7728 8.38386 2.74198 8.49797 2.81824L8.72724 2.97154C8.84106 3.04763 8.87177 3.20155 8.79585 3.31548L6.50062 6.7612C6.42453 6.87536 6.27033 6.90623 6.15622 6.83003L5.92633 6.67657C5.81239 6.60053 5.78163 6.4465 5.85761 6.33251Z" fill="#464655"/>
<path d="M4.89265 5.6915L7.18873 2.24252C7.26482 2.1283 7.41919 2.09743 7.53329 2.17369L7.76257 2.32699C7.87633 2.40308 7.90709 2.55683 7.83129 2.67082L5.53662 6.1203C5.46064 6.23446 5.30639 6.26545 5.19228 6.18936L4.96171 6.03561C4.84761 5.95958 4.81679 5.80555 4.89265 5.6915Z" fill="#464655"/>
<path d="M19.036 15.1154L19.9384 13.7637C20.0146 13.6496 20.1689 13.619 20.2829 13.6953L20.5116 13.8484C20.6253 13.9245 20.6559 14.0784 20.5799 14.1923L19.6786 15.5442C19.6025 15.6583 19.4483 15.6892 19.3343 15.613L19.1045 15.4596C18.9905 15.3835 18.9598 15.2294 19.036 15.1154Z" fill="#464655"/>
<path d="M20.4278 13.0325L21.3317 11.6742C21.4077 11.56 21.5619 11.5291 21.676 11.6052L21.9064 11.7587C22.0205 11.8348 22.0513 11.9891 21.9752 12.1031L21.0694 13.4593C20.9934 13.573 20.8398 13.6039 20.7258 13.5283L20.4974 13.3769C20.3829 13.301 20.3518 13.1467 20.4278 13.0325Z" fill="#464655"/>
<path d="M19.9997 15.7627L20.9027 14.4075C20.9787 14.2934 21.1328 14.2625 21.2469 14.3386L21.4777 14.4925C21.5917 14.5686 21.6226 14.7225 21.5466 14.8366L20.6442 16.1919C20.5682 16.306 20.4142 16.337 20.3 16.261L20.0686 16.107C19.9546 16.031 19.9237 15.8768 19.9997 15.7627Z" fill="#464655"/>
<path d="M21.3935 13.6684L22.2969 12.3164C22.3731 12.2025 22.5271 12.1718 22.6411 12.2478L22.8717 12.4015C22.9859 12.4776 23.0167 12.6319 22.9404 12.746L22.0369 14.0981C21.9608 14.2119 21.8068 14.2426 21.6929 14.1667L21.4621 14.0129C21.348 13.9368 21.3172 13.7825 21.3935 13.6684Z" fill="#464655"/>
<path d="M20.9652 16.4026L21.8692 15.0498C21.9452 14.9362 22.0985 14.9053 22.2124 14.9806L22.4422 15.1324C22.5569 15.2082 22.5882 15.3628 22.5119 15.4772L21.6086 16.8319C21.5325 16.9459 21.3784 16.9767 21.2644 16.9007L21.0339 16.747C20.9197 16.6709 20.889 16.5166 20.9652 16.4026Z" fill="#464655"/>
<path d="M22.3576 14.3157L23.2593 12.9613C23.3354 12.847 23.4898 12.8162 23.6039 12.8925L23.8329 13.0456C23.9468 13.1217 23.9774 13.2757 23.9014 13.3897L22.9988 14.7423C22.923 14.8561 22.7692 14.887 22.6552 14.8114L22.4269 14.6602C22.3126 14.5843 22.2815 14.4299 22.3576 14.3157Z" fill="#464655"/>
</g>
<defs>
<clipPath id="clip0_120_3431">
<rect width="28.7931" height="18.9674" fill="white"/>
</clipPath>
</defs>
</svg>
