<svg width="35" height="26" viewBox="0 0 35 26" fill="none" xmlns="http://www.w3.org/2000/svg">
<path d="M30.5631 0.0722001L8.63925 0.0214844L8.57893 25.9444L30.5028 25.9951C31.514 25.9974 32.4848 25.5795 33.2016 24.8332C33.9184 24.087 34.3224 23.0735 34.3249 22.0158L34.3667 4.06916C34.3691 3.01144 33.9698 1.99611 33.2565 1.24654C32.5432 0.49696 31.5743 0.0745393 30.5631 0.0722001ZM21.4601 20.4625C19.564 20.4582 17.7475 19.6661 16.41 18.2607C15.0726 16.8552 14.3238 14.9515 14.3284 12.9682C14.337 9.25928 16.9283 6.19539 20.3155 5.61397C19.0337 6.23157 17.9919 7.28855 17.3627 8.60988C16.7335 9.9312 16.5546 11.4376 16.8556 12.8796C17.1566 14.3216 17.9196 15.6126 19.018 16.539C20.1165 17.4653 21.4846 17.9713 22.8957 17.9733C24.0761 17.9754 25.2326 17.6246 26.2288 16.9622C27.2251 16.2998 28.0196 15.3533 28.5189 14.2344C27.9473 17.7756 25.006 20.4707 21.4601 20.4625ZM26.3552 10.0807L25.1943 12.0941L25.0014 9.75156L22.8122 9.22006L24.8828 8.30358L24.6909 5.96109L26.1624 7.73823L28.233 6.82175L27.073 8.83608L28.5444 10.6132L26.3552 10.0807Z" fill="#004600"/>
<path d="M3.87324 0.00882012C2.86201 0.00648088 1.89122 0.424415 1.17443 1.17068C0.457644 1.91695 0.0535741 2.93042 0.0511127 3.98814L0.00934919 21.9348C0.00688777 22.9925 0.406236 24.0078 1.11954 24.7574C1.83285 25.507 2.80168 25.9294 3.81291 25.9317L8.57897 25.9427L8.63929 0.0198453L3.87324 0.00882012Z" fill="#EEEEEE"/>
<path d="M28.2336 6.82202L26.163 7.7385L24.6916 5.96136L24.8834 8.30385L22.8128 9.22032L25.0021 9.75183L25.1949 12.0943L26.3558 10.081L28.5451 10.6135L27.0736 8.83635L28.2336 6.82202Z" fill="white"/>
<path d="M22.8962 17.9708C21.485 17.9688 20.1169 17.4628 19.0185 16.5365C17.92 15.6101 17.1571 14.3191 16.8561 12.8771C16.555 11.4351 16.7339 9.9287 17.3632 8.60737C17.9924 7.28605 19.0342 6.22906 20.316 5.61147C16.9288 6.19388 14.3375 9.25777 14.3289 12.9657C14.3243 14.949 15.0731 16.8527 16.4105 18.2582C17.748 19.6636 19.5645 20.4557 21.4606 20.46C25.0065 20.4682 27.9477 17.7721 28.5193 14.2319C28.0203 15.351 27.2258 16.2975 26.2295 16.96C25.2332 17.6224 24.0766 17.9731 22.8962 17.9708Z" fill="white"/>
</svg>
