<svg width="32" height="24" viewBox="0 0 32 24" fill="none" xmlns="http://www.w3.org/2000/svg">
<path d="M27.6378 0H3.45473C2.53848 0 1.65975 0.389016 1.01187 1.08147C0.363979 1.77392 0 2.71309 0 3.69237L0 7.84629H31.0925V3.69237C31.0925 2.71309 30.7286 1.77392 30.0807 1.08147C29.4328 0.389016 28.5541 0 27.6378 0Z" fill="#D21034"/>
<path d="M0 20.3063C0 21.2855 0.363979 22.2247 1.01187 22.9172C1.65975 23.6096 2.53848 23.9986 3.45473 23.9986H27.6378C28.5541 23.9986 29.4328 23.6096 30.0807 22.9172C30.7286 22.2247 31.0925 21.2855 31.0925 20.3063V16.1523H0V20.3063Z" fill="#141414"/>
<path d="M0 7.84766H31.0925V16.1555H0V7.84766Z" fill="#EEEEEE"/>
<path d="M1.16684 0.925781C0.799945 1.27188 0.505348 1.69752 0.304309 2.17436C0.103271 2.65121 -0.00046542 3.16834 1.56971e-06 3.69137V20.307C1.56971e-06 21.4083 0.450843 22.3969 1.16684 23.0735L15.1144 11.9992L1.16684 0.925781Z" fill="#007229"/>
</svg>
