<svg width="34" height="27" viewBox="0 0 34 27" fill="none" xmlns="http://www.w3.org/2000/svg">
<path d="M34 0H0V27H34V0Z" fill="#DC4437"/>
<path d="M22.885 10.4844L23.905 12.3519L26.1542 12.6444L24.5326 14.0844L24.8988 16.1094L22.885 15.1644L20.8711 16.1094L21.2634 14.0844L19.6157 12.6444L21.8911 12.3519L22.885 10.4844Z" fill="white"/>
<path d="M22.4139 8.52609C22.4139 8.52609 22.3615 8.52609 22.2831 8.50359C22.2046 8.48109 22.0739 8.45859 21.9431 8.41359C21.7862 8.36859 21.6031 8.30109 21.3939 8.27859C21.2892 8.25609 21.1846 8.25609 21.0539 8.23359C20.9492 8.21109 20.8446 8.18859 20.6877 8.18859C20.1646 8.12109 19.5631 8.05359 18.9092 8.09859C18.2554 8.12109 17.5754 8.21109 16.8954 8.39109C16.8169 8.41359 16.7385 8.43609 16.6339 8.45859H16.6077C16.5815 8.45859 16.8431 8.45859 16.7123 8.45859H16.6862L16.6077 8.48109L16.4769 8.50359C16.3462 8.52609 16.2415 8.57109 16.1108 8.59359L15.9277 8.63859C15.8754 8.66109 15.8754 8.68359 15.8231 8.68359C15.7708 8.72859 15.6923 8.75109 15.64 8.77359L15.5615 8.81859L15.5092 8.84109L15.4569 8.86359C15.3 8.95359 15.1431 9.02109 15.0123 9.11109C14.4369 9.44859 13.9139 9.85359 13.4954 10.3261L13.3385 10.5061C13.3123 10.5286 13.2862 10.5736 13.26 10.5961C13.3123 10.5511 13.1292 10.7086 13.3646 10.4836L13.3385 10.5061V10.5736L13.26 10.6411L12.9985 10.9561C12.8677 11.0911 12.8939 11.1136 12.8677 11.1586C12.8415 11.2036 12.8415 11.2486 12.8154 11.2711C12.8154 11.2936 12.7892 11.3386 12.7631 11.3611L12.7369 11.4736L12.6323 11.6536C12.6062 11.7211 12.58 11.7886 12.5539 11.8561C12.4231 12.1261 12.3969 12.3961 12.3185 12.6661C12.2923 12.8011 12.2923 12.9361 12.24 13.0711C12.24 13.1386 12.24 13.2061 12.24 13.2736V13.3861V13.4311V13.4536V13.4761C12.24 13.4086 12.24 13.6561 12.24 13.3186L12.2662 13.7236V13.9261V14.0161C12.2662 14.0386 12.2662 14.0611 12.2662 14.0611V14.0836C12.2923 14.1286 12.2923 14.1511 12.2923 14.1961C12.2923 14.2411 12.2923 14.2636 12.3185 14.3311C12.3969 14.6011 12.4231 14.8711 12.5539 15.1411C12.58 15.2086 12.6062 15.2761 12.6323 15.3436C12.6585 15.4111 12.7108 15.4786 12.7369 15.5461C12.7631 15.6136 12.7892 15.6811 12.8415 15.7486L12.9723 15.9286C13.0508 16.0636 13.1554 16.1761 13.2339 16.2886L13.26 16.3336L13.2862 16.3561V16.3786C13.0508 16.1761 13.2339 16.3336 13.1815 16.2886L13.3123 16.4236C13.4169 16.5136 13.4954 16.6261 13.6 16.7161L13.7046 16.8286L13.7569 16.8736C13.7831 16.9186 13.8354 16.9411 13.8615 16.9861C13.8615 17.0086 13.9139 17.0311 13.94 17.0536C13.9662 17.0761 13.9923 17.0986 14.0446 17.1211L14.2277 17.2786C14.3585 17.3686 14.4892 17.4811 14.62 17.5711C14.7508 17.6611 14.9077 17.7286 15.0385 17.8411C15.6139 18.1786 16.2939 18.4261 16.9477 18.6061C17.1831 18.6511 17.4446 18.6961 17.5492 18.7186C17.68 18.7411 17.8108 18.7861 17.9677 18.8086C18.1508 18.8311 18.3077 18.8536 18.4646 18.8536C18.6215 18.8761 18.7785 18.8761 18.9615 18.8761C19.6154 18.8986 20.2169 18.8311 20.74 18.7861C20.8708 18.7636 20.9754 18.7411 21.1062 18.7186C21.2369 18.6961 21.3415 18.6736 21.4462 18.6511C21.6554 18.6286 21.8385 18.5611 21.9692 18.5386C22.1 18.4936 22.2308 18.4711 22.3092 18.4486C22.3877 18.4261 22.44 18.4261 22.44 18.4261L22.6754 18.3586L22.9108 18.5611L22.7539 18.6961C22.7539 18.6961 22.6492 18.7861 22.4139 18.9661C22.2046 19.1461 21.8646 19.3936 21.42 19.6636C20.9492 19.9336 20.3739 20.2261 19.6415 20.4736C19.2754 20.6086 18.8831 20.6986 18.4646 20.7886C18.02 20.8561 17.5492 20.9461 17.1046 20.9461C16.1369 20.9911 15.0908 20.9236 14.0185 20.6311C12.9462 20.3611 11.9 19.8886 10.9585 19.1911C10.0431 18.5386 9.23231 17.6611 8.70924 16.6711C8.42154 16.1761 8.23847 15.6361 8.08155 15.0961C8.00308 14.8261 7.97693 14.5336 7.92462 14.2636C7.89847 13.9936 7.89847 13.7236 7.87231 13.4536C7.87231 13.4086 7.87231 13.4311 7.87231 13.4311V13.4086V13.3861V13.3411V13.2286L7.89847 13.0261C7.89847 12.8911 7.89847 12.7561 7.92462 12.5986C7.97693 12.3286 8.00308 12.0361 8.08155 11.7661C8.23847 11.2261 8.42154 10.6861 8.70924 10.1911L8.91847 9.83109C8.99693 9.71859 9.07539 9.60609 9.15385 9.47109C9.23231 9.35859 9.31078 9.24609 9.41539 9.13359L9.70308 8.79609C9.88616 8.57109 10.0954 8.39109 10.3046 8.21109L10.4615 8.05359L10.6446 7.91859C10.7492 7.82859 10.88 7.73859 10.9846 7.64859C11.9 6.97359 12.9723 6.50109 14.0446 6.20859C14.3062 6.14109 14.5677 6.09609 14.8292 6.02859C15.0908 5.98359 15.3785 5.96109 15.64 5.91609L15.8492 5.89359H16.0323C16.1631 5.89359 16.2677 5.89359 16.3985 5.87109H16.5815H16.66H16.6862H16.7123H16.7646C16.8954 5.87109 17 5.89359 17.1308 5.89359C17.6015 5.89359 18.0723 5.98359 18.4908 6.05109C18.9092 6.16359 19.3277 6.23109 19.6677 6.36609C20.4 6.59109 20.9754 6.90609 21.4462 7.17609C21.8908 7.46859 22.2569 7.69359 22.44 7.87359C22.6492 8.05359 22.7539 8.14359 22.7539 8.14359L22.9108 8.27859L22.7015 8.48109L22.4139 8.52609Z" fill="white"/>
</svg>
