<svg width="27" height="20" viewBox="0 0 27 20" fill="none" xmlns="http://www.w3.org/2000/svg">
<g clip-path="url(#clip0_120_2684)">
<path d="M0 2.8964V5.7835H4.12297L0 2.8964ZM3.41676 18.97H9.52355V14.6939L3.41676 18.97ZM16.8494 14.6946V18.97H22.9554L16.8494 14.6946ZM0 13.1093V15.9964L4.12443 13.1093H0ZM22.9569 -0.0771484H16.8494V4.19893L22.9569 -0.0771484ZM26.3729 15.9971V13.1093H22.2478L26.3729 15.9971ZM26.3729 5.7835V2.8964L22.2492 5.7835H26.3729ZM9.52355 -0.0771484H3.41676L9.52355 4.19893V-0.0771484Z" fill="#00247D"/>
<path d="M18.4173 13.109L25.5321 18.0913C25.8796 17.7334 26.1293 17.2922 26.2574 16.81L20.9718 13.109H18.4173ZM9.52378 13.109H7.95532L0.841222 18.0906C1.2229 18.4789 1.71226 18.7565 2.26096 18.8854L9.52378 13.7999V13.109ZM16.8496 5.78324H18.418L25.5321 0.801686C25.1439 0.407759 24.6518 0.132127 24.1131 0.00683594L16.8496 5.09241V5.78324ZM7.95532 5.78324L0.841222 0.801686C0.493944 1.1599 0.244033 1.60096 0.115234 2.08297L5.40081 5.78324H7.95532Z" fill="#CF1B2B"/>
<path d="M26.3729 11.6442H15.3842V18.97H16.8494V14.6946L22.9554 18.97H23.4426C23.8318 18.97 24.2171 18.8924 24.5759 18.7415C24.9346 18.5907 25.2597 18.3697 25.5319 18.0916L18.4171 13.1093H20.9716L26.2572 16.8103C26.3253 16.5634 26.3729 16.3078 26.3729 16.0396V15.9971L22.2478 13.1093H26.3729V11.6442ZM0 11.6442V13.1093H4.12443L0 15.9964V16.0396C0 16.8389 0.321603 17.5619 0.841003 18.0909L7.9551 13.1093H9.52355V13.8001L2.26075 18.885C2.47612 18.9363 2.69883 18.97 2.93032 18.97H3.41676L9.52355 14.6939V18.97H10.9887V11.6442H0ZM26.3729 2.85318C26.3734 2.08542 26.0712 1.34842 25.5319 0.801949L18.4178 5.7835H16.8494V5.09268L24.1129 0.00709851C23.8935 -0.0467262 23.6685 -0.0749961 23.4426 -0.0771482H22.9569L16.8494 4.19893V-0.0771482H15.3842V7.24866H26.3729V5.7835H22.2492L26.3729 2.8964V2.85318ZM9.52355 -0.0771482V4.19893L3.41676 -0.0771482H2.93032C2.54105 -0.0773178 2.15567 0.000368513 1.79686 0.15134C1.43805 0.302312 1.11306 0.52352 0.841003 0.801949L7.9551 5.7835H5.40059L0.115015 2.08323C0.0423287 2.33356 0.00364343 2.59253 0 2.85318L0 2.8964L4.12297 5.7835H0V7.24866H10.9887V-0.0771482H9.52355Z" fill="#EEEEEE"/>
<path d="M15.3842 7.24866V-0.0771484H10.9887V7.24866H0V11.6442H10.9887V18.97H15.3842V11.6442H26.3729V7.24866H15.3842Z" fill="#CF1B2B"/>
</g>
<defs>
<clipPath id="clip0_120_2684">
<rect width="26.1866" height="19.1723" fill="white"/>
</clipPath>
</defs>
</svg>
