<svg width="26" height="29" viewBox="0 0 26 29" fill="none" xmlns="http://www.w3.org/2000/svg">
<path d="M22.7642 11.6336C22.7642 12.0482 23.1008 12.3838 23.5144 12.3838C23.929 12.3838 24.2656 12.0482 24.2656 11.6336C24.2656 11.2195 23.929 10.8833 23.5144 10.8833C23.1008 10.8833 22.7642 11.2195 22.7642 11.6336Z" fill="url(#paint0_linear_103_262)"/>
<path d="M20.6637 20.8442C20.3319 20.8442 20.0635 21.1131 20.0635 21.4449C20.0635 21.7763 20.3319 22.0446 20.6637 22.0446C20.9956 22.0446 21.2639 21.7763 21.2639 21.4449C21.2639 21.1131 20.9956 20.8442 20.6637 20.8442Z" fill="url(#paint1_linear_103_262)"/>
<path d="M19.7048 22.9966C19.0247 22.9966 18.4736 23.5478 18.4736 24.2278C18.4736 24.9073 19.0248 25.4584 19.7048 25.4584C20.3848 25.4584 20.936 24.9073 20.936 24.2278C20.936 23.5478 20.3848 22.9966 19.7048 22.9966Z" fill="url(#paint2_linear_103_262)"/>
<path d="M6.11224 24.5648C6.62592 24.5648 7.04234 24.1484 7.04234 23.6347C7.04234 23.121 6.62592 22.7046 6.11224 22.7046C5.59855 22.7046 5.18213 23.121 5.18213 23.6347C5.18213 24.1484 5.59855 24.5648 6.11224 24.5648Z" fill="url(#paint3_linear_103_262)"/>
<path d="M3.74118 19.8843C3.47665 19.8843 3.26123 20.0988 3.26123 20.3647C3.26123 20.6292 3.47671 20.8442 3.74118 20.8442C4.0067 20.8442 4.22118 20.6292 4.22118 20.3647C4.22112 20.0988 4.00665 19.8843 3.74118 19.8843Z" fill="url(#paint4_linear_103_262)"/>
<path d="M1.55094 8.36311C1.89917 8.36311 2.18097 8.08076 2.18097 7.73258C2.18097 7.38484 1.89917 7.10254 1.55094 7.10254C1.20275 7.10254 0.920898 7.38484 0.920898 7.73258C0.920898 8.08076 1.20275 8.36311 1.55094 8.36311Z" fill="url(#paint5_linear_103_262)"/>
<path d="M7.70255 5.42208C8.16616 5.42208 8.54219 5.046 8.54219 4.58139C8.54219 4.11827 8.16616 3.74219 7.70255 3.74219C7.23893 3.74219 6.86279 4.11833 6.86279 4.58139C6.86279 5.04594 7.23893 5.42208 7.70255 5.42208Z" fill="url(#paint6_linear_103_262)"/>
<path d="M23.47 16.6441C20.8355 15.7091 20.316 16.0636 19.0291 14.8439C18.7212 14.553 18.728 13.5988 20.4392 13.8239C21.2971 13.9369 21.8791 13.4637 21.8791 12.7884C21.8791 12.3383 21.3366 11.7126 20.5286 12.0233C19.359 12.4734 18.6001 11.9627 18.4587 11.3932C18.2787 10.6733 18.4827 9.85235 21.4934 8.34845C25.1831 6.50307 23.067 3.14522 20.1688 6.30781C18.8847 7.70828 18.2787 8.28783 17.4237 8.73799C16.6561 9.14148 15.7357 8.72304 16.433 7.79299C16.7032 7.43274 17.1621 7.15481 17.288 6.71279C17.4679 6.08275 16.9379 5.49745 16.4782 5.49745C16.0184 5.49745 15.4432 5.76729 15.2633 6.44251C14.9931 7.68038 14.3043 7.61843 13.9792 7.26106C13.3569 6.57909 13.581 5.78362 13.6878 4.55245C13.8138 3.1063 14.6699 -0.233342 12.043 0.0129146C10.7763 0.131725 10.4021 1.32586 10.8118 3.46024C11.3216 6.10971 10.5502 7.95891 9.72688 8.33262C8.73709 8.78272 8.23505 8.61198 6.12664 7.16301C5.00609 6.39201 3.76904 7.06872 3.51614 7.97287C3.29297 8.76927 3.92207 9.73166 4.86663 10.0432C6.32191 10.5237 6.96734 10.6352 7.64255 11.0027C8.30238 11.3629 8.38509 12.2363 7.72621 13.0265C7.06639 13.8172 5.36191 13.1631 2.84181 12.9832C-1.51447 12.6725 -0.535307 17.4914 3.56132 16.0742C5.90154 15.2638 6.89127 15.4436 7.2972 15.939C7.85703 16.6224 7.47226 17.5463 6.38148 18.2042C2.90144 20.3049 6.8028 22.9144 8.24269 20.0044C8.84483 18.7885 9.53737 18.4149 10.2223 18.6842C10.7811 18.9045 11.4967 20.8546 10.6878 23.4853C9.96738 25.8256 10.0164 28.3462 11.7083 28.3462C13.2896 28.3462 13.5368 25.991 13.2675 23.4257C13.1674 22.4658 13.2415 20.9783 13.9879 20.6051C14.5882 20.3049 15.526 19.9707 16.1628 21.2947C16.7485 22.51 18.0086 22.3296 18.5039 21.6549C18.8656 21.161 19.0493 20.0654 17.6094 19.4975C15.8934 18.8193 16.5235 16.974 17.8287 17.1543C19.2696 17.3529 20.2574 17.8834 21.9696 19.345C24.3588 21.3832 27.4262 18.0479 23.47 16.6441Z" fill="url(#paint7_linear_103_262)"/>
<defs>
<linearGradient id="paint0_linear_103_262" x1="23.5149" y1="10.8833" x2="23.5149" y2="12.3838" gradientUnits="userSpaceOnUse">
<stop stop-color="#F67C23"/>
<stop offset="1" stop-color="#FEA05B"/>
</linearGradient>
<linearGradient id="paint1_linear_103_262" x1="20.6637" y1="20.8442" x2="20.6637" y2="22.0446" gradientUnits="userSpaceOnUse">
<stop stop-color="#F67C23"/>
<stop offset="1" stop-color="#FEA05B"/>
</linearGradient>
<linearGradient id="paint2_linear_103_262" x1="19.7048" y1="22.9966" x2="19.7048" y2="25.4584" gradientUnits="userSpaceOnUse">
<stop stop-color="#F67C23"/>
<stop offset="1" stop-color="#FEA05B"/>
</linearGradient>
<linearGradient id="paint3_linear_103_262" x1="6.11224" y1="22.7046" x2="6.11224" y2="24.5648" gradientUnits="userSpaceOnUse">
<stop stop-color="#F67C23"/>
<stop offset="1" stop-color="#FEA05B"/>
</linearGradient>
<linearGradient id="paint4_linear_103_262" x1="3.7412" y1="19.8843" x2="3.7412" y2="20.8442" gradientUnits="userSpaceOnUse">
<stop stop-color="#F67C23"/>
<stop offset="1" stop-color="#FEA05B"/>
</linearGradient>
<linearGradient id="paint5_linear_103_262" x1="1.55094" y1="7.10254" x2="1.55094" y2="8.36311" gradientUnits="userSpaceOnUse">
<stop stop-color="#F67C23"/>
<stop offset="1" stop-color="#FEA05B"/>
</linearGradient>
<linearGradient id="paint6_linear_103_262" x1="7.70249" y1="3.74219" x2="7.70249" y2="5.42208" gradientUnits="userSpaceOnUse">
<stop stop-color="#F67C23"/>
<stop offset="1" stop-color="#FEA05B"/>
</linearGradient>
<linearGradient id="paint7_linear_103_262" x1="12.6866" y1="0" x2="12.6866" y2="28.3462" gradientUnits="userSpaceOnUse">
<stop stop-color="#F67C23"/>
<stop offset="1" stop-color="#FEA05B"/>
</linearGradient>
</defs>
</svg>
