<svg width="34" height="31" viewBox="0 0 34 31" fill="none" xmlns="http://www.w3.org/2000/svg">
<g clip-path="url(#clip0_1289_239)">
<path d="M2.21094 17.0391C3.48809 17.0391 5.13752 17.1702 6.84375 17.6514C7.09884 18.2848 7.39506 18.9009 7.73535 19.4932V19.4941C9.28552 22.1799 11.5761 24.0516 13.209 25.1445C13.2321 25.16 13.2561 25.175 13.2793 25.1904C11.4408 25.0415 9.22208 24.5815 7.19141 23.4092C4.12054 21.6363 2.24344 18.6343 1.41992 17.0566C1.65438 17.0461 1.9201 17.0391 2.21094 17.0391Z" fill="#979B9C" fill-opacity="0.3" stroke="#979B9C"/>
<path d="M31.4331 17.0391C31.7236 17.0391 31.9891 17.047 32.2231 17.0576C31.4003 18.6352 29.5244 21.6371 26.4536 23.4102C24.4236 24.5822 22.2057 25.0413 20.3677 25.1904C20.3907 25.1751 20.415 25.1609 20.438 25.1455C22.0701 24.0529 24.3598 22.1811 25.9106 19.4951L25.9116 19.4941C26.2523 18.9015 26.5474 18.2844 26.8022 17.6504C28.5077 17.1697 30.1564 17.0391 31.4331 17.0391Z" fill="#979B9C" fill-opacity="0.3" stroke="#979B9C"/>
<path d="M7.2998 9.58008C8.44548 10.1709 10.3638 11.3152 12.0771 13.0693C11.9955 13.7151 11.9523 14.3655 11.9512 15.0166L11.9639 15.6377C12.091 18.7195 13.1359 21.4466 14.0117 23.2256V23.2246C14.1012 23.4063 14.1929 23.5873 14.2871 23.7666C14.2522 23.7436 14.2164 23.7215 14.1816 23.6982H14.1807C12.6788 22.6928 10.6206 21.0014 9.24805 18.624C7.87532 16.2462 7.43982 13.6177 7.32031 11.8145V11.8135L7.28418 11.0713C7.26986 10.5742 7.27483 10.0767 7.2998 9.58008Z" fill="#979B9C" fill-opacity="0.3" stroke="#979B9C"/>
<path d="M26.333 9.57715C26.4221 11.446 26.316 15.2878 24.3896 18.624H24.3887C23.0158 21.0019 20.9571 22.6932 19.4551 23.6982C19.4187 23.7226 19.3812 23.7454 19.3447 23.7695C19.4395 23.5893 19.533 23.4083 19.623 23.2256C20.5574 21.3288 21.6835 18.3532 21.6836 15.0176V15.0166C21.6826 14.3664 21.6391 13.7172 21.5576 13.0723C22.5377 12.0655 23.5638 11.2777 24.4082 10.7129V10.7119C25.027 10.2961 25.6698 9.91689 26.333 9.57715Z" fill="#979B9C" fill-opacity="0.3" stroke="#979B9C"/>
<path d="M16.8213 5.39062C17.9046 7.05695 19.9521 10.7732 19.9521 15.0205C19.9521 17.9992 18.936 20.703 18.0703 22.459C17.6233 23.3668 17.1709 24.1138 16.8223 24.6484C16.5374 24.2115 16.1825 23.6339 15.8193 22.9414L15.5742 22.459C14.7095 20.7018 13.6924 17.9989 13.6924 15.0205C13.6924 12.0418 14.7095 9.33717 15.5742 7.58105C16.0213 6.67321 16.4727 5.92546 16.8213 5.39062Z" fill="#979B9C" fill-opacity="0.3" stroke="#979B9C"/>
</g>
<defs>
<clipPath id="clip0_1289_239">
<rect width="33.0933" height="30.2156" fill="white"/>
</clipPath>
</defs>
</svg>
