<svg width="34" height="31" viewBox="0 0 34 31" fill="none" xmlns="http://www.w3.org/2000/svg">
<path d="M24.7869 15.1083L24.9138 14.9814C25.5104 14.3794 25.8452 13.5661 25.8452 12.7184C25.8452 11.8708 25.5104 11.0575 24.9138 10.4555C24.5676 10.1128 24.1472 9.85436 23.685 9.70032C23.2229 9.54628 22.7315 9.50073 22.249 9.5672H22.0375C22.0717 9.50225 22.0864 9.42881 22.0798 9.35571C22.1168 9.21795 22.1311 9.07508 22.1221 8.93272C22.0934 8.10995 21.7621 7.32671 21.1915 6.7332C20.5842 6.14654 19.7729 5.81864 18.9285 5.81864C18.0842 5.81864 17.2728 6.14654 16.6656 6.7332L16.5387 6.8601L16.4118 6.7332C15.8098 6.13652 14.9964 5.80176 14.1488 5.80176C13.3012 5.80176 12.4879 6.13652 11.8859 6.7332C11.5431 7.07937 11.2847 7.49981 11.1307 7.96194C10.9767 8.42406 10.9311 8.91544 10.9976 9.39801C10.991 9.47111 11.0057 9.54455 11.0399 9.6095H10.4054C9.57925 9.60466 8.78059 9.90604 8.16359 10.4555C7.57693 11.0627 7.24902 11.8741 7.24902 12.7184C7.24902 13.5628 7.57693 14.3741 8.16359 14.9814L8.29049 15.1083L8.16359 15.2352C7.57693 15.8424 7.24902 16.6538 7.24902 17.4982C7.24902 18.3425 7.57693 19.1539 8.16359 19.7611C8.7678 20.3413 9.56791 20.6735 10.4054 20.6917H11.0399C11.0057 20.7566 10.991 20.8301 10.9976 20.9032C10.9499 21.3473 10.9966 21.7965 11.1346 22.2213C11.2725 22.6462 11.4986 23.0371 11.7981 23.3685C12.0976 23.6999 12.4636 23.9644 12.8724 24.1445C13.2811 24.3247 13.7233 24.4165 14.17 24.4139C14.5868 24.4159 14.9998 24.3346 15.3848 24.1748C15.7697 24.015 16.1189 23.7799 16.4118 23.4834L16.5387 23.3565L16.6656 23.4834C17.2728 24.07 18.0842 24.3979 18.9285 24.3979C19.7729 24.3979 20.5842 24.07 21.1915 23.4834C21.7717 22.8792 22.1038 22.0791 22.1221 21.2416C22.1311 21.0992 22.1168 20.9563 22.0798 20.8186C22.0864 20.7455 22.0717 20.672 22.0375 20.6071H22.249C22.6961 20.6672 23.1509 20.6313 23.5831 20.5018C24.0152 20.3722 24.4148 20.152 24.755 19.8557C25.0953 19.5595 25.3685 19.1941 25.5563 18.7839C25.7442 18.3737 25.8423 17.9282 25.8443 17.477C25.8463 17.0602 25.765 16.6472 25.6052 16.2622C25.4454 15.8773 25.2103 15.5281 24.9138 15.2352L24.7869 15.1083ZM16.5387 18.4922C15.8694 18.4922 15.2152 18.2937 14.6587 17.9219C14.1022 17.5501 13.6685 17.0216 13.4124 16.4032C13.1563 15.7849 13.0893 15.1045 13.2198 14.4481C13.3504 13.7917 13.6727 13.1888 14.1459 12.7155C14.6192 12.2423 15.2221 11.92 15.8785 11.7894C16.5349 11.6589 17.2153 11.7259 17.8336 11.982C18.452 12.2381 18.9804 12.6718 19.3523 13.2283C19.7241 13.7848 19.9226 14.439 19.9226 15.1083C19.9226 16.0058 19.566 16.8665 18.9314 17.5011C18.2968 18.1357 17.4361 18.4922 16.5387 18.4922Z" fill="#979B9C"/>
</svg>
