<svg width="24" height="24" viewBox="0 0 24 24" fill="none" xmlns="http://www.w3.org/2000/svg">
<g clip-path="url(#clip0_502_2)">
<path d="M23.7212 14.3447V11.7636C23.7212 8.67816 23.7212 7.13543 22.8192 6.13266C22.7364 6.04043 22.6486 5.95263 22.5563 5.86967C21.5535 4.96777 20.0108 4.96777 16.9254 4.96777H16.4873C15.1351 4.96777 14.459 4.96777 13.829 4.78818C13.4828 4.68951 13.1491 4.55133 12.8347 4.37636C12.2622 4.05782 11.7841 3.57973 10.8279 2.62353L10.1829 1.97858C9.86241 1.6581 9.70218 1.49784 9.53379 1.35824C8.80776 0.756396 7.9171 0.387472 6.97814 0.299668C6.76035 0.279297 6.53373 0.279297 6.0805 0.279297C5.04607 0.279297 4.52885 0.279297 4.09803 0.360583C2.20145 0.71842 0.717931 2.20194 0.360095 4.09852C0.278809 4.52934 0.278809 5.04656 0.278809 6.08099V14.3447C0.278809 18.765 0.278809 20.9753 1.65203 22.3484C3.02526 23.7217 5.23542 23.7217 9.65576 23.7217H14.3442C18.7645 23.7217 20.9748 23.7217 22.3479 22.3484C23.7212 20.9753 23.7212 18.765 23.7212 14.3447Z" fill="#F88532"/>
<path d="M12.293 9.65546C12.293 9.16995 12.6866 8.77637 13.1721 8.77637H19.0327C19.5181 8.77637 19.9117 9.16995 19.9117 9.65546C19.9117 10.1409 19.5181 10.5345 19.0327 10.5345H13.1721C12.6866 10.5345 12.293 10.1409 12.293 9.65546Z" fill="#1D2023"/>
</g>
<defs>
<clipPath id="clip0_502_2">
<rect width="24" height="24" fill="white"/>
</clipPath>
</defs>
</svg>
