<svg width="50" height="50" viewBox="0 0 50 50" fill="none" xmlns="http://www.w3.org/2000/svg">
<g filter="url(#filter0_d_816_428)">
<rect x="5" y="1" width="40" height="40" rx="12" fill="white"/>
<path fill-rule="evenodd" clip-rule="evenodd" d="M19.2973 15.2893C22.4243 12.1667 27.5074 12.1999 30.6535 15.346C33.8009 18.4935 33.8328 23.5796 30.7062 26.7062C27.5795 29.8328 22.4934 29.8009 19.346 26.6535C17.4808 24.7884 16.7106 22.2438 17.0413 19.8308C17.0877 19.4927 17.3993 19.2562 17.7374 19.3026C18.0756 19.3489 18.3121 19.6605 18.2657 19.9986C17.9856 22.0421 18.6375 24.1973 20.2199 25.7797C22.893 28.4528 27.1966 28.468 29.8323 25.8323C32.468 23.1966 32.4527 18.893 29.7796 16.2199C27.1079 13.5481 22.8073 13.5315 20.1712 16.1631L20.7872 16.1662C21.1285 16.168 21.4038 16.446 21.402 16.7873C21.4003 17.1285 21.1223 17.4038 20.781 17.4021L18.6838 17.3915C18.3449 17.3898 18.0707 17.1156 18.069 16.7767L18.0584 14.6795C18.0567 14.3382 18.332 14.0602 18.6732 14.0584C19.0145 14.0567 19.2925 14.332 19.2942 14.6733L19.2973 15.2893Z" fill="#F88532"/>
<path d="M25.0007 17.0859C25.342 17.0859 25.6187 17.3626 25.6187 17.7039V20.7434L27.4974 22.6223C27.7387 22.8636 27.7387 23.2548 27.4974 23.4961C27.2561 23.7374 26.8649 23.7374 26.6236 23.4961L24.6241 21.4967C24.4697 21.3422 24.3828 21.1327 24.3828 20.9141V17.7039C24.3828 17.3626 24.6595 17.0859 25.0007 17.0859Z" fill="#F88532"/>
</g>
<defs>
<filter id="filter0_d_816_428" x="0" y="0" width="50" height="50" filterUnits="userSpaceOnUse" color-interpolation-filters="sRGB">
<feFlood flood-opacity="0" result="BackgroundImageFix"/>
<feColorMatrix in="SourceAlpha" type="matrix" values="0 0 0 0 0 0 0 0 0 0 0 0 0 0 0 0 0 0 127 0" result="hardAlpha"/>
<feOffset dy="4"/>
<feGaussianBlur stdDeviation="2.5"/>
<feComposite in2="hardAlpha" operator="out"/>
<feColorMatrix type="matrix" values="0 0 0 0 0.889423 0 0 0 0 0.889423 0 0 0 0 0.889423 0 0 0 0.25 0"/>
<feBlend mode="normal" in2="BackgroundImageFix" result="effect1_dropShadow_816_428"/>
<feBlend mode="normal" in="SourceGraphic" in2="effect1_dropShadow_816_428" result="shape"/>
</filter>
</defs>
</svg>
