<svg width="40" height="40" viewBox="0 0 40 40" fill="none" xmlns="http://www.w3.org/2000/svg">
<rect width="40" height="40" rx="12" fill="#1C1E22"/>
<path fill-rule="evenodd" clip-rule="evenodd" d="M14.2973 14.2893C17.4243 11.1667 22.5074 11.1999 25.6535 14.346C28.8009 17.4935 28.8328 22.5796 25.7062 25.7062C22.5795 28.8328 17.4934 28.8009 14.346 25.6535C12.4808 23.7884 11.7106 21.2438 12.0413 18.8308C12.0877 18.4927 12.3993 18.2562 12.7374 18.3026C13.0756 18.3489 13.3121 18.6605 13.2657 18.9986C12.9856 21.0421 13.6375 23.1973 15.2199 24.7797C17.893 27.4528 22.1966 27.468 24.8323 24.8323C27.468 22.1966 27.4527 17.893 24.7796 15.2199C22.1079 12.5481 17.8073 12.5315 15.1712 15.1631L15.7872 15.1662C16.1285 15.168 16.4038 15.446 16.402 15.7873C16.4003 16.1285 16.1223 16.4038 15.781 16.4021L13.6838 16.3915C13.3449 16.3898 13.0707 16.1156 13.069 15.7767L13.0584 13.6795C13.0567 13.3382 13.332 13.0602 13.6732 13.0584C14.0145 13.0567 14.2925 13.332 14.2942 13.6733L14.2973 14.2893Z" fill="#F88532"/>
<path d="M20.0007 16.0859C20.342 16.0859 20.6187 16.3626 20.6187 16.7039V19.7434L22.4974 21.6223C22.7387 21.8636 22.7387 22.2548 22.4974 22.4961C22.2561 22.7374 21.8649 22.7374 21.6236 22.4961L19.6241 20.4967C19.4697 20.3422 19.3828 20.1327 19.3828 19.9141V16.7039C19.3828 16.3626 19.6595 16.0859 20.0007 16.0859Z" fill="#F88532"/>
</svg>
