<svg width="18" height="21" viewBox="0 0 18 21" fill="none" xmlns="http://www.w3.org/2000/svg">
<path d="M16.5535 4.37863L9.70026 0.267906C9.40239 0.0893019 9.06814 0 8.7333 0C8.39833 0 8.06412 0.0893019 7.76637 0.267591L0.913158 4.37863C0.702661 4.50471 0.522679 4.66878 0.379395 4.85869L8.56556 9.76903C8.6688 9.83104 8.79787 9.83104 8.90099 9.76903L17.0871 4.85869C16.9439 4.66878 16.7639 4.50471 16.5535 4.37863ZM4.86323 5.13104C4.43168 5.43072 3.74278 5.42328 3.32443 5.11324C2.90635 4.8038 2.91721 4.30949 3.34876 4.00953C3.78047 3.70926 4.46937 3.71729 4.88756 4.02678C5.30576 4.3365 5.2949 4.83049 4.86323 5.13104ZM9.44834 5.15892C9.0312 5.44879 8.36569 5.44108 7.96147 5.14203C7.55737 4.84293 7.56804 4.36528 7.98506 4.0754C8.40207 3.78553 9.06755 3.79293 9.47181 4.09233C9.87591 4.39139 9.86536 4.86904 9.44834 5.15892ZM14.0847 5.22511C13.653 5.52506 12.964 5.51703 12.5457 5.20762C12.1277 4.89814 12.1385 4.40359 12.5702 4.10332C13.0016 3.80368 13.6906 3.81108 14.1089 4.12112C14.5272 4.43056 14.5162 4.92483 14.0847 5.22511Z" fill="#F88532"/>
<path d="M8.34457 10.173L0.149545 5.25732C0.0526834 5.48578 0 5.73443 0 5.99048V14.1837C0 14.8442 0.34638 15.456 0.912785 15.796L7.766 19.9064C7.99551 20.0441 8.24653 20.128 8.50286 20.1598V10.4525C8.50286 10.338 8.44277 10.2317 8.34457 10.173ZM1.63941 14.5581C1.1647 14.2995 0.779895 13.7049 0.779895 13.2302C0.779895 12.7555 1.1647 12.5804 1.63941 12.8391C2.11411 13.0978 2.4988 13.6924 2.4988 14.1671C2.4988 14.6418 2.11411 14.8169 1.63941 14.5581ZM1.63941 9.75971C1.1647 9.50066 0.779895 8.9061 0.779895 8.43168C0.779895 7.95697 1.1647 7.78191 1.63941 8.04065C2.11411 8.29934 2.4988 8.89394 2.4988 9.36868C2.4988 9.84306 2.11411 10.0184 1.63941 9.75971ZM6.43801 17.1735C5.96346 16.9148 5.57861 16.3202 5.57861 15.8455C5.57861 15.3711 5.96342 15.196 6.43801 15.4547C6.91271 15.7134 7.2974 16.308 7.2974 16.7824C7.2974 17.2572 6.91271 17.4322 6.43801 17.1735ZM6.43801 12.3751C5.96346 12.1163 5.57861 11.5218 5.57861 11.047C5.57861 10.5723 5.96342 10.3973 6.43801 10.656C6.91271 10.9147 7.2974 11.5093 7.2974 11.984C7.2974 12.4587 6.91271 12.6337 6.43801 12.3751Z" fill="#F88532"/>
<path d="M17.3167 5.25732L9.12167 10.173C9.02347 10.2317 8.96338 10.338 8.96338 10.4525V20.1598C9.21975 20.128 9.47076 20.0441 9.70024 19.9064L16.5535 15.796C17.1197 15.456 17.4663 14.8442 17.4663 14.1837V5.99044C17.4663 5.73443 17.4136 5.48578 17.3167 5.25732ZM13.2409 13.9823C12.4814 14.3962 11.8658 14.116 11.8658 13.3565C11.8658 12.5973 12.4814 11.6458 13.2409 11.2322C14.0005 10.818 14.616 11.0981 14.616 11.8576C14.616 12.6169 14.0005 13.5683 13.2409 13.9823Z" fill="#F88532"/>
</svg>
