<svg width="29" height="26" viewBox="0 0 29 26" fill="none" xmlns="http://www.w3.org/2000/svg">
<path opacity="0.3" d="M20.4512 19.0937C20.2831 18.7595 20.2547 18.3722 20.3721 18.017C20.4896 17.6618 20.7433 17.3678 21.0775 17.1997C21.4006 17.0375 22.1266 16.1459 21.7038 15.3057L22.9734 17.826C23.1418 18.1602 23.1705 18.5476 23.0532 18.903C22.9359 19.2584 22.6823 19.5526 22.348 19.721C22.0138 19.8893 21.6264 19.918 21.271 19.8007C20.9157 19.6834 20.6214 19.4298 20.4531 19.0956L20.4512 19.0937Z" fill="#979B9C"/>
<path opacity="0.3" d="M6.62881 6.64865C5.64889 4.99914 5.45704 3.72299 5.99591 2.1774C5.63959 2.1072 5.27095 2.13399 4.92852 2.25498C3.53293 2.75717 2.97338 4.75181 3.67823 6.70978C4.38308 8.66774 6.08619 9.84797 7.48178 9.34532C8.87737 8.84266 9.43645 6.84849 8.7316 4.89052C8.59762 4.51779 8.42123 4.1617 8.20591 3.82925C7.94212 5.17453 7.46955 6.03314 6.62881 6.64865Z" fill="#979B9C"/>
<path opacity="0.3" d="M21.7478 6.64865C22.7277 4.99914 22.9195 3.72299 22.3807 2.1774C22.737 2.1072 23.1056 2.13399 23.4481 2.25498C24.8436 2.75717 25.4032 4.75181 24.6984 6.70978C23.9935 8.66774 22.2904 9.84797 20.8948 9.34532C19.4992 8.84266 18.9401 6.84849 19.6426 4.89052C19.7766 4.51779 19.953 4.1617 20.1683 3.82925C20.4345 5.17453 20.907 6.03314 21.7478 6.64865Z" fill="#979B9C"/>
<path d="M6.62881 6.64865C5.64889 4.99914 5.45704 3.72299 5.99591 2.1774C5.63959 2.1072 5.27095 2.13399 4.92852 2.25498C3.53293 2.75717 2.97338 4.75181 3.67823 6.70978C4.38308 8.66774 6.08619 9.84797 7.48178 9.34532C8.87737 8.84266 9.43645 6.84849 8.7316 4.89052C8.59762 4.51779 8.42123 4.1617 8.20591 3.82925C7.94212 5.17453 7.46955 6.03314 6.62881 6.64865Z" stroke="#979B9C" stroke-width="0.940425" stroke-miterlimit="10" stroke-linecap="square"/>
<path d="M20.4512 19.0937C20.2831 18.7595 20.2547 18.3722 20.3721 18.017C20.4896 17.6618 20.7433 17.3678 21.0775 17.1997C21.4006 17.0375 22.1266 16.1459 21.7038 15.3057L22.9734 17.826C23.1418 18.1602 23.1705 18.5476 23.0532 18.903C22.9359 19.2584 22.6823 19.5526 22.348 19.721C22.0138 19.8893 21.6264 19.918 21.271 19.8007C20.9157 19.6834 20.6214 19.4298 20.4531 19.0956L20.4512 19.0937Z" stroke="#979B9C" stroke-width="0.940425" stroke-miterlimit="10" stroke-linecap="square"/>
<path d="M13.5419 19.7797C13.7171 19.9271 13.9386 20.0079 14.1675 20.0079C14.3964 20.0079 14.618 19.9271 14.7931 19.7797C15.7425 18.9395 17.4386 17.0567 17.4386 14.3342C17.3967 12.1474 16.9419 9.98821 16.098 7.97035C16.0143 7.77358 15.8742 7.60603 15.6954 7.48886C15.5165 7.37169 15.3069 7.31016 15.0931 7.31205H13.2419C13.0281 7.31016 12.8185 7.37169 12.6397 7.48886C12.4608 7.60603 12.3207 7.77358 12.2371 7.97035C11.3932 9.98821 10.9383 12.1474 10.8965 14.3342C10.8965 17.0567 12.5925 18.9395 13.5419 19.7797Z" stroke="#979B9C" stroke-width="0.940425" stroke-miterlimit="10" stroke-linecap="square"/>
<path d="M21.7109 20.0078C21.7109 21.0055 21.3146 21.9623 20.6091 22.6677C19.9037 23.3732 18.9469 23.7695 17.9492 23.7695C16.9515 23.7695 15.9947 23.3732 15.2893 22.6677C14.5838 21.9623 14.1875 21.0055 14.1875 20.0078" stroke="#979B9C" stroke-width="0.940425" stroke-miterlimit="10" stroke-linecap="square"/>
<path d="M13.249 7.31201V6.37158" stroke="#979B9C" stroke-width="0.940425" stroke-miterlimit="10" stroke-linecap="square"/>
<path d="M15.1279 7.31201V6.37158" stroke="#979B9C" stroke-width="0.940425" stroke-miterlimit="10" stroke-linecap="square"/>
<path d="M12.4402 7.65723C10.2495 9.99606 8.06441 12.515 4.39111 8.04233" stroke="#979B9C" stroke-width="0.940425" stroke-miterlimit="10"/>
<path d="M21.7478 6.64865C22.7277 4.99914 22.9195 3.72299 22.3807 2.1774C22.737 2.1072 23.1056 2.13399 23.4481 2.25498C24.8436 2.75717 25.4032 4.75181 24.6984 6.70978C23.9935 8.66774 22.2904 9.84797 20.8948 9.34532C19.4992 8.84266 18.9401 6.84849 19.6426 4.89052C19.7766 4.51779 19.953 4.1617 20.1683 3.82925C20.4345 5.17453 20.907 6.03314 21.7478 6.64865Z" stroke="#979B9C" stroke-width="0.940425" stroke-miterlimit="10" stroke-linecap="square"/>
<path d="M15.936 7.65723C18.1268 9.99606 20.3118 12.515 23.9851 8.04233" stroke="#979B9C" stroke-width="0.940425" stroke-miterlimit="10"/>
<path d="M11.6493 17.3745L10.9571 18.0667C10.3165 18.7073 9.44765 19.0672 8.54166 19.0673H7.60547" stroke="#979B9C" stroke-width="0.940425" stroke-miterlimit="10"/>
<path d="M10.9327 15.0117L10.2387 15.631C9.85751 15.9699 9.40532 16.2193 8.91526 16.3607C8.4252 16.5021 7.90969 16.532 7.40656 16.4482L6.19482 16.2465" stroke="#979B9C" stroke-width="0.940425" stroke-miterlimit="10"/>
<path d="M17.4443 15.0117L18.1403 15.631C18.6168 16.0548 19.2026 16.3368 19.8311 16.4449" stroke="#979B9C" stroke-width="0.940425" stroke-miterlimit="10"/>
<path d="M11.0855 12.0137L9.70074 12.8789C9.20454 13.1892 8.63688 13.3669 8.05226 13.3947C7.46764 13.4225 6.88568 13.2996 6.36223 13.0378L5.25488 12.4839" stroke="#979B9C" stroke-width="0.940425" stroke-miterlimit="10"/>
<path d="M16.7275 17.3745L17.4197 18.0667C17.8287 18.4756 18.3347 18.7741 18.8905 18.9342" stroke="#979B9C" stroke-width="0.940425" stroke-miterlimit="10"/>
<path d="M17.2905 12.0137L18.6753 12.8789C19.1715 13.1892 19.7392 13.3669 20.3238 13.3947C20.9084 13.4225 21.4904 13.2996 22.0138 13.0378L23.1212 12.4839" stroke="#979B9C" stroke-width="0.940425" stroke-miterlimit="10"/>
</svg>
