<svg width="13" height="17" viewBox="0 0 13 17" fill="none" xmlns="http://www.w3.org/2000/svg">
<path d="M8.72995 13.686C8.72995 14.3172 8.47916 14.9227 8.03281 15.369C7.58646 15.8154 6.98104 16.0661 6.34984 16.0661C5.71863 16.0661 5.11321 15.8154 4.66685 15.369C4.22049 14.9227 3.96973 14.3172 3.96973 13.686" fill="#F88532"/>
<path d="M1.25739 12.8927C0.869074 12.8102 0.525759 12.5853 0.295166 12.2622C0.0645726 11.939 -0.0365266 11.5412 0.0118134 11.1472L0.805184 4.71299C1.00775 3.39016 1.68114 2.18495 2.70152 1.31909C3.7219 0.453217 5.02061 -0.0150539 6.35879 0.000369187C7.69697 -0.0150539 8.99564 0.453217 10.016 1.31909C11.0364 2.18495 11.7098 3.39016 11.9124 4.71299L12.7058 11.1472C12.7544 11.5401 12.6543 11.937 12.4254 12.2599C12.1964 12.5828 11.8549 12.8086 11.4681 12.8927C8.11024 13.6817 4.61522 13.6817 1.25739 12.8927Z" fill="#F88532"/>
</svg>
